<?xml version="1.0" standalone="no"?>
<!DOCTYPE svg PUBLIC "-//W3C//DTD SVG 20010904//EN"
 "http://www.w3.org/TR/2001/REC-SVG-20010904/DTD/svg10.dtd">
<svg version="1.0" xmlns="http://www.w3.org/2000/svg"
 width="400.000000pt" height="400.000000pt" viewBox="0 0 400.000000 400.000000"
 preserveAspectRatio="xMidYMid meet">
<metadata>
Created by potrace 1.14, written by Peter Selinger 2001-2017
</metadata>
<g transform="translate(0.000000,400.000000) scale(0.100000,-0.100000)"
fill="#000000" stroke="none">
<path d="M470 2714 c-39 -17 -89 -70 -91 -96 -1 -10 -2 -28 -3 -40 -1 -13 9
-43 23 -68 23 -43 117 -195 134 -215 4 -5 48 -62 97 -125 49 -63 100 -129 114
-146 l25 -31 -77 -90 c-109 -126 -166 -198 -222 -283 -8 -12 -23 -33 -32 -45
-10 -13 -18 -26 -18 -29 0 -4 -10 -20 -22 -36 -28 -38 -28 -111 -1 -148 34
-46 67 -64 116 -64 63 0 94 22 147 100 40 60 140 201 162 227 13 15 48 56 100
114 l47 52 32 -28 c18 -15 40 -35 50 -44 9 -9 43 -36 75 -60 33 -23 63 -48 67
-56 4 -7 14 -13 21 -13 7 0 21 -9 31 -20 10 -11 21 -20 26 -20 4 0 30 -16 59
-35 29 -19 58 -35 66 -35 8 0 14 -4 14 -8 0 -7 138 -76 245 -123 58 -25 242
-75 311 -84 27 -4 69 -11 94 -15 124 -23 431 0 590 45 83 23 184 57 195 65 6
4 21 11 35 15 40 12 228 107 315 160 82 50 228 151 259 180 6 6 44 37 85 70
81 66 99 88 111 139 8 38 -16 107 -43 122 -18 11 -95 74 -116 95 -22 23 -197
150 -251 183 -25 15 -67 41 -95 58 -56 35 -191 104 -276 141 -70 31 -261 93
-309 101 -19 3 -66 13 -105 22 -50 12 -122 17 -255 19 -160 2 -201 -1 -298
-21 -201 -42 -407 -116 -545 -196 -26 -15 -50 -28 -53 -28 -3 0 -20 -10 -37
-22 -17 -13 -39 -27 -48 -33 -43 -26 -158 -109 -194 -140 -22 -19 -42 -35 -46
-35 -3 0 -27 27 -55 61 -27 33 -58 71 -69 83 -11 13 -29 36 -40 52 -11 15 -35
47 -52 71 -18 24 -30 43 -26 43 3 0 -3 10 -14 23 -11 12 -39 54 -63 94 -32 53
-53 76 -79 88 -53 23 -73 25 -111 9z m1890 -339 c93 -10 300 -68 405 -113 134
-58 300 -152 400 -226 11 -8 44 -33 73 -55 l54 -39 -29 -19 c-15 -10 -34 -24
-43 -31 -30 -27 -109 -82 -116 -82 -4 0 -15 -7 -25 -16 -51 -46 -330 -177
-464 -217 -52 -16 -205 -46 -265 -53 -50 -5 -210 -5 -240 0 -14 3 -42 7 -64
10 -21 4 -41 8 -45 11 -4 2 -25 6 -47 9 -77 10 -196 52 -334 120 -70 34 -186
104 -245 148 -44 33 -136 108 -163 133 l-34 31 44 35 c24 20 57 44 73 55 17
10 34 24 38 31 4 7 12 13 17 13 5 0 37 18 71 40 34 22 68 40 76 40 7 0 13 4
13 9 0 5 15 14 33 22 17 7 61 26 97 42 36 15 67 29 70 29 3 0 21 6 40 13 62
24 197 55 267 61 37 3 69 7 71 9 5 4 207 -3 272 -10z"/>
</g>
</svg>
